<?xml version="1.0" encoding="UTF-8"?>
<svg width="64px" height="64px" viewBox="0 0 64 64" version="1.1" xmlns="http://www.w3.org/2000/svg" xmlns:xlink="http://www.w3.org/1999/xlink">
    <title>cygn_ xstx</title>
    <defs>
        <linearGradient x1="50%" y1="0%" x2="50%" y2="100%" id="linearGradient-1">
            <stop stop-color="#FFB649" offset="0%"></stop>
            <stop stop-color="#FFB649" offset="43.9620961%"></stop>
            <stop stop-color="#FFA938" offset="45.7161062%"></stop>
            <stop stop-color="#FF9D2B" offset="100%"></stop>
        </linearGradient>
    </defs>
    <g id="页面-1" stroke="none" stroke-width="1" fill="none" fill-rule="evenodd">
        <g id="切图" transform="translate(-106.000000, -270.000000)">
            <g id="编组-12" transform="translate(18.000000, 270.000000)">
                <g id="编组-20" transform="translate(88.000000, 0.000000)">
                    <rect id="矩形备份" fill="#FDF1DC" x="0" y="0" width="64" height="64" rx="16"></rect>
                    <g id="编组-10" transform="translate(9.000000, 15.000000)" fill-rule="nonzero">
                        <path d="M23.7260459,4 C24.4763832,3.69874475 25,2.95118547 25,2.06973501 C25,0.926080897 24.0985155,0.00557883187 22.9973009,0 C21.8906882,0 21,0.931659673 21,2.06973501 C21,2.9456067 21.5290148,3.69874475 22.2793522,4 L23.002699,2.10320783 L23.7260459,4 L23.7260459,4 Z M3.35222675,14.4756757 C3.75168692,14.1081081 4,13.5837838 4,13 C4,11.8918919 3.10391362,11 1.99730098,11 C0.890688347,11 0,11.8972973 0,13 C0,14.1081081 0.89608638,15 1.99730098,15 C2.32118761,15 2.62887991,14.9243243 2.89878545,14.7891892 L2.5641026,14 L3.35222675,14.4756757 L3.35222675,14.4756757 Z M8,31 L37,31 L37,34 L8,34 L8,31 Z M34.1793051,19.6755824 L34.088004,7.96289903 C33.9459802,7.94348576 33.8039563,7.8981881 33.6720771,7.83994823 L28.4983515,16.608283 L23.6898301,1 C23.4818666,1.10353753 23.253614,1.1617774 23.0101445,1.1617774 C22.7717474,1.1617774 22.5434948,1.10353753 22.3304591,1 L17.5219376,16.608283 L12.3482121,7.83994823 C12.2163328,7.8981881 12.0793812,7.94348576 11.9322851,7.96289903 L11.8409841,19.6755824 L3.42607152,13.2433132 C3.29926452,13.3921484 3.1572407,13.5150992 3,13.6186368 L8.84326655,31 L37.1567334,31 L43,13.6121657 C42.8478316,13.5150992 42.7058078,13.3856774 42.5790007,13.2368421 L34.1793051,19.6755824 L34.1793051,19.6755824 Z M26.7914268,23.0126503 L25.4914785,23.9841564 C25.1424183,24.2442061 24.9257602,24.7790251 25.0280709,25.156833 L25.3771311,26.5699328 C25.4674053,26.9477408 25.2146375,27.1047519 24.793358,26.9133946 L23.2586967,26.2068447 C22.8434355,26.0154874 22.1633699,26.0154874 21.7420903,26.2068447 L20.207429,26.9183012 C19.7921677,27.1096584 19.5273634,26.9526473 19.6236559,26.5748394 L19.9727161,25.1617396 C20.0629903,24.7790251 19.8583688,24.2540193 19.5093085,23.989063 L18.2093602,23.0175569 C17.8603,22.7575073 17.9565924,22.5023643 18.4320365,22.4582049 L20.1833558,22.2962872 C20.6527816,22.2472213 21.2124816,21.9233859 21.4050666,21.5750175 L22.1332785,20.2649562 C22.3318817,19.9116813 22.6568688,19.9116813 22.855472,20.2649562 L23.5836838,21.5750175 C23.782287,21.9282925 24.3359687,22.2570344 24.8053946,22.2962872 L26.5567139,22.4582049 C27.0441946,22.5023643 27.140487,22.7526007 26.7914268,23.0126503 L26.7914268,23.0126503 Z M33.7597841,10.9838056 C33.8353576,10.9946019 33.9163293,11 33.997301,11 C35.1093118,11 36,10.1039136 36,8.99730096 C36,7.89068828 35.0985155,7 33.997301,7 C32.8960864,7 32,7.89608637 32,8.99730096 C32,9.86099864 32.5506073,10.6005398 33.3225371,10.8812415 L33.754386,10.3036437 L33.7597841,10.9838056 L33.7597841,10.9838056 Z M12.682861,10.8812415 C13.4493927,10.6005398 14,9.86639673 14,8.99730096 C14,7.89068828 13.1039136,7 12.002699,7 C10.8906883,7 10,7.89608637 10,8.99730096 C10,10.0985155 10.8906882,10.9946019 12.002699,11 C12.0836707,11 12.1646424,10.9946019 12.245614,10.9838056 L12.2510121,10.3036437 L12.682861,10.8812415 L12.682861,10.8812415 Z M44,11 C42.8918919,11 42,11.8972973 42,13 C42,13.5837838 42.2486486,14.1081081 42.6432433,14.4702703 L43.427027,14 L43.0918919,14.7837838 C43.3621622,14.9243243 43.6702703,15 44,15 C45.1081081,15 46,14.1081081 46,13 C46,11.8918919 45.1027027,11 44,11 L44,11 Z" id="形状" fill="#FBE7D8"></path>
                        <path d="M23.7260459,5 C24.4763832,4.69874475 25,3.95118547 25,3.06973501 C25,1.9260809 24.0985155,1.00557883 22.9973009,1 C21.8906882,1 21,1.93165967 21,3.06973501 C21,3.9456067 21.5290148,4.69874475 22.2793522,5 L23.002699,3.10320783 L23.7260459,5 L23.7260459,5 Z M5.35222675,15.4756757 C5.75168692,15.1081081 6,14.5837838 6,14 C6,12.8918919 5.10391362,12 3.99730098,12 C2.89068835,12 2,12.8972973 2,14 C2,15.1081081 2.89608638,16 3.99730098,16 C4.32118761,16 4.62887991,15.9243243 4.89878545,15.7891892 L4.5641026,15 L5.35222675,15.4756757 L5.35222675,15.4756757 Z M10,30 L36,30 L36,33 L10,33 L10,30 Z M32.8408572,19.4305436 L32.7564037,8.49870576 C32.6250317,8.48058671 32.4936596,8.43830889 32.3716713,8.38395168 L27.5859751,16.5677308 L23.1380928,2 C22.9457266,2.09663503 22.7345929,2.15099224 22.5093837,2.15099224 C22.2888663,2.15099224 22.0777327,2.09663503 21.8806746,2 L17.4327923,16.5677308 L12.6470962,8.38395168 C12.5251078,8.43830889 12.3984276,8.48058671 12.2623637,8.49870576 L12.1779102,19.4305436 L4.39411616,13.4270924 C4.27681968,13.5660052 4.14544765,13.6807593 4,13.7773943 L9.40502156,30 L35.5949784,30 L41,13.7713546 C40.8592442,13.6807593 40.7278722,13.5599655 40.6105757,13.4210526 L32.8408572,19.4305436 L32.8408572,19.4305436 Z M26.8146016,23.0126503 L25.659092,23.9841564 C25.3488162,24.2442061 25.1562313,24.7790251 25.2471741,25.156833 L25.5574499,26.5699328 C25.6376936,26.9477408 25.4130112,27.1047519 25.0385405,26.9133946 L23.6743971,26.2068447 C23.305276,26.0154874 22.7007732,26.0154874 22.3263025,26.2068447 L20.9621591,26.9183012 C20.593038,27.1096584 20.3576563,26.9526473 20.4432497,26.5748394 L20.7535254,25.1617396 C20.8337692,24.7790251 20.6518834,24.2540193 20.3416076,23.989063 L19.1860979,23.0175569 C18.8758222,22.7575073 18.9614155,22.5023643 19.3840325,22.4582049 L20.9407608,22.2962872 C21.3580281,22.2472213 21.8555392,21.9233859 22.0267259,21.5750175 L22.6740253,20.2649562 C22.8505615,19.9116813 23.1394389,19.9116813 23.3159751,20.2649562 L23.9632745,21.5750175 C24.1398107,21.9282925 24.6319722,22.2570344 25.0492396,22.2962872 L26.6059679,22.4582049 C27.0392841,22.5023643 27.1248774,22.7526007 26.8146016,23.0126503 L26.8146016,23.0126503 Z M32.7597841,11.9838056 C32.8353576,11.9946019 32.9163293,12 32.997301,12 C34.1093118,12 35,11.1039136 35,9.99730096 C35,8.89068828 34.0985155,8 32.997301,8 C31.8960864,8 31,8.89608637 31,9.99730096 C31,10.8609986 31.5506073,11.6005398 32.3225371,11.8812415 L32.754386,11.3036437 L32.7597841,11.9838056 L32.7597841,11.9838056 Z M13.682861,11.8812415 C14.4493927,11.6005398 15,10.8663967 15,9.99730096 C15,8.89068828 14.1039136,8 13.002699,8 C11.8906883,8 11,8.89608637 11,9.99730096 C11,11.0985155 11.8906882,11.9946019 13.002699,12 C13.0836707,12 13.1646424,11.9946019 13.245614,11.9838056 L13.2510121,11.3036437 L13.682861,11.8812415 L13.682861,11.8812415 Z M42,12 C40.8918919,12 40,12.8972973 40,14 C40,14.5837838 40.2486486,15.1081081 40.6432433,15.4702703 L41.427027,15 L41.0918919,15.7837838 C41.3621622,15.9243243 41.6702703,16 42,16 C43.1081081,16 44,15.1081081 44,14 C44,12.8918919 43.1027027,12 42,12 L42,12 Z" id="形状" fill="#F9D2BE"></path>
                        <path d="M23.680668,5.75 C24.3841093,5.46757321 24.875,4.76673638 24.875,3.94037657 C24.875,2.86820084 24.0298583,2.00523015 22.9974696,2 C21.9600202,2 21.125,2.87343094 21.125,3.94037657 C21.125,4.76150628 21.6209514,5.46757321 22.3243927,5.75 L23.0025303,3.97175734 L23.680668,5.75 L23.680668,5.75 Z M6.14271258,15.258446 C6.51720649,14.9138514 6.75,14.4222974 6.75,13.875 C6.75,12.8361487 5.90991902,12 4.87246967,12 C3.83502033,12 3,12.8412162 3,13.875 C3,14.9138514 3.84008098,15.75 4.87246967,15.75 C5.17611338,15.75 5.46457492,15.6790541 5.71761136,15.5523649 L5.40384619,14.8125 L6.14271258,15.258446 L6.14271258,15.258446 Z M10.5,29.5 L35.5,29.5 L35.5,32 L10.5,32 L10.5,29.5 Z M32.7818919,19.5911346 L32.7020035,9.34253665 C32.5777327,9.32555004 32.4534618,9.28591459 32.3380674,9.2349547 L27.8110575,16.9072476 L23.6036013,3.25 C23.4216333,3.34059534 23.2219122,3.39155522 23.0088765,3.39155522 C22.8002789,3.39155522 22.600558,3.34059534 22.4141517,3.25 L18.2066954,16.9072476 L13.6796855,9.2349547 C13.5642912,9.28591459 13.4444586,9.32555004 13.3157495,9.34253665 L13.235861,19.5911346 L5.87281258,13.9628991 C5.76185646,14.0931299 5.63758561,14.2007118 5.5,14.2913072 L10.6128582,29.5 L35.3871418,29.5 L40.5,14.285645 C40.3668527,14.2007118 40.2425818,14.0874677 40.1316256,13.9572368 L32.7818919,19.5911346 L32.7818919,19.5911346 Z M26.576189,22.1898664 L25.4928987,23.0572825 C25.2020152,23.2894697 25.0214668,23.7669867 25.1067258,24.1043152 L25.3976093,25.3660115 C25.4728378,25.70334 25.262198,25.8435284 24.9111317,25.6726737 L23.6322473,25.0418256 C23.2861962,24.8709709 22.7194749,24.8709709 22.3684086,25.0418256 L21.0895241,25.6770546 C20.7434731,25.8479093 20.5228028,25.7077208 20.6030466,25.3703924 L20.8939301,24.1086961 C20.9691586,23.7669867 20.7986407,23.2982315 20.5077571,23.0616634 L19.4244668,22.1942472 C19.1335833,21.9620601 19.213827,21.7342538 19.6100305,21.6948258 L21.0694632,21.5502565 C21.4606514,21.5064476 21.927068,21.2173088 22.0875555,20.9062656 L22.6943987,19.7365681 C22.8599014,19.421144 23.130724,19.421144 23.2962266,19.7365681 L23.9030698,20.9062656 C24.0685725,21.2216897 24.5299739,21.5152093 24.9211622,21.5502565 L26.3805949,21.6948258 C26.7868288,21.7342538 26.8670725,21.9576792 26.576189,22.1898664 L26.576189,22.1898664 Z M32.1497976,11.9848178 C32.2206478,11.9949392 32.2965587,12 32.3724697,12 C33.4149798,12 34.25,11.159919 34.25,10.1224696 C34.25,9.08502026 33.4048583,8.25 32.3724697,8.25 C31.340081,8.25 30.5,9.09008097 30.5,10.1224696 C30.5,10.9321862 31.0161943,11.6255061 31.7398786,11.888664 L32.1447369,11.347166 L32.1497976,11.9848178 L32.1497976,11.9848178 Z M14.2651822,11.888664 C14.9838057,11.6255061 15.5,10.9372469 15.5,10.1224696 C15.5,9.08502026 14.659919,8.25 13.6275304,8.25 C12.5850203,8.25 11.75,9.09008097 11.75,10.1224696 C11.75,11.1548583 12.5850202,11.9949392 13.6275304,12 C13.7034413,12 13.7793522,11.9949393 13.8552632,11.9848178 L13.8603239,11.347166 L14.2651822,11.888664 L14.2651822,11.888664 Z M41.125,12 C40.0861487,12 39.25,12.8412162 39.25,13.875 C39.25,14.4222973 39.4831081,14.9138514 39.8530406,15.2533784 L40.5878378,14.8125 L40.2736487,15.5472973 C40.527027,15.6790541 40.8158784,15.75 41.125,15.75 C42.1638514,15.75 43,14.9138514 43,13.875 C43,12.8361487 42.1587838,12 41.125,12 L41.125,12 Z" id="形状" fill="url(#linearGradient-1)"></path>
                    </g>
                </g>
            </g>
        </g>
    </g>
</svg>